# Rhino

v -0.20000000298023224 0.0099999997764825821 0.05000000074505806
v -0.20000000298023224 0 0.05000000074505806
v -0.20000000298023224 0.0099999997764825821 -0.05000000074505806
v -0.20000000298023224 0 -0.05000000074505806
v 0.20000000298023224 0.0099999997764825821 -0.05000000074505806
v 0.20000000298023224 0 -0.05000000074505806
v 0.20000000298023224 0.0099999997764825821 0.05000000074505806
v 0.20000000298023224 0 0.05000000074505806
vt 0 0
vt 0 0.5161287784576416
vt 0.1666666716337204 0
vt 0.1666666716337204 0.5161287784576416
vt 0.1666666716337204 0
vt 0.1666666716337204 0.5161287784576416
vt 0.5 0
vt 0.5 0.5161287784576416
vt 0.5 0
vt 0.5 0.5161287784576416
vt 0.66666668653488159 0
vt 0.66666668653488159 0.5161287784576416
vt 0.66666668653488159 0
vt 0.66666668653488159 0.5161287784576416
vt 1 0
vt 1 0.5161287784576416
vt 0 0.5161292552947998
vt 0 1
vt 0.3333333432674408 1
vt 0.3333333432674408 0.5161292552947998
vt 0.66666668653488159 1
vt 0.66666668653488159 0.5161292552947998
vt 1 0.5161292552947998
vt 1 1
vn -1 0 0
vn -1 0 0
vn -1 0 0
vn -1 0 0
vn 0 0 -1
vn 0 0 -1
vn 0 0 -1
vn 0 0 -1
vn 1 0 0
vn 1 0 0
vn 1 0 0
vn 1 0 0
vn 0 0 1
vn 0 0 1
vn 0 0 1
vn 0 0 1
vn 0 1 0
vn 0 1 0
vn 0 1 0
vn 0 1 0
vn 0 -1 0
vn 0 -1 0
vn 0 -1 0
vn 0 -1 0
f 1/1/1 3/3/3 4/4/4 2/2/2
f 3/5/5 5/7/7 6/8/8 4/6/6
f 5/9/9 7/11/11 8/12/12 6/10/10
f 7/13/13 1/15/15 2/16/16 8/14/14
f 5/19/19 3/18/18 1/17/17
f 1/17/17 7/20/20 5/19/19
f 6/23/23 2/21/21 4/22/22
f 2/21/21 6/23/23 8/24/24
