# Rhino

v 0 0 -0.10000000149011612
v 0 0.0099999997764825821 -0.10000000149011612
v -0.086602538824081421 0 -0.05000000074505806
v -0.086602538824081421 0.0099999997764825821 -0.05000000074505806
v -0.086602538824081421 0 0.05000000074505806
v -0.086602538824081421 0.0099999997764825821 0.05000000074505806
v 0 0 0.10000000149011612
v 0 0.0099999997764825821 0.10000000149011612
v 0.086602538824081421 0 0.05000000074505806
v 0.086602538824081421 0.0099999997764825821 0.05000000074505806
v 0.086602538824081421 0 -0.05000000074505806
v 0.086602538824081421 0.0099999997764825821 -0.05000000074505806
vt 0 0
vt 0 0.57505267858505249
vt 0.1666666716337204 0
vt 0.1666666716337204 0.57505267858505249
vt 0.1666666716337204 0
vt 0.1666666716337204 0.57505267858505249
vt 0.3333333432674408 0
vt 0.3333333432674408 0.57505267858505249
vt 0.3333333432674408 0
vt 0.3333333432674408 0.57505267858505249
vt 0.5 0
vt 0.5 0.57505267858505249
vt 0.5 0
vt 0.5 0.57505267858505249
vt 0.66666668653488159 0
vt 0.66666668653488159 0.57505267858505249
vt 0.66666668653488159 0
vt 0.66666668653488159 0.57505267858505249
vt 0.83333331346511841 0
vt 0.83333331346511841 0.57505267858505249
vt 0.83333331346511841 0
vt 0.83333331346511841 0.57505267858505249
vt 1 0
vt 1 0.57505267858505249
vt 0 0.78752660751342773
vt 0.083333335816860199 1
vt 0.25 1
vt 0.3333333432674408 0.78752660751342773
vt 0.25 0.57505327463150024
vt 0.083333335816860199 0.57505327463150024
vt 0 0.78752660751342773
vt 0.083333335816860199 0.57505327463150024
vt 0.25 0.57505327463150024
vt 0.3333333432674408 0.78752660751342773
vt 0.25 1
vt 0.083333335816860199 1
vn -0.5 0 -0.86602538824081421
vn -0.5 0 -0.86602538824081421
vn -0.5 0 -0.86602538824081421
vn -0.5 0 -0.86602538824081421
vn -1 0 0
vn -1 0 0
vn -1 0 0
vn -1 0 0
vn -0.5 0 0.86602538824081421
vn -0.5 0 0.86602538824081421
vn -0.5 0 0.86602538824081421
vn -0.5 0 0.86602538824081421
vn 0.5 0 0.86602538824081421
vn 0.5 0 0.86602538824081421
vn 0.5 0 0.86602538824081421
vn 0.5 0 0.86602538824081421
vn 1 0 0
vn 1 0 0
vn 1 0 0
vn 1 0 0
vn 0.5 0 -0.86602538824081421
vn 0.5 0 -0.86602538824081421
vn 0.5 0 -0.86602538824081421
vn 0.5 0 -0.86602538824081421
vn 0 -1 0
vn 0 -1 0
vn 0 -1 0
vn 0 -1 0
vn 0 -1 0
vn 0 -1 0
vn 0 1 0
vn 0 1 0
vn 0 1 0
vn 0 1 0
vn 0 1 0
vn 0 1 0
f 1/1/1 3/3/3 4/4/4 2/2/2
f 3/5/5 5/7/7 6/8/8 4/6/6
f 5/9/9 7/11/11 8/12/12 6/10/10
f 7/13/13 9/15/15 10/16/16 8/14/14
f 9/17/17 11/19/19 12/20/20 10/18/18
f 11/21/21 1/23/23 2/24/24 12/22/22
f 1/25/25 5/27/27 3/26/26
f 7/28/28 5/27/27 11/30/30
f 1/25/25 11/30/30 5/27/27
f 9/29/29 7/28/28 11/30/30
f 2/31/31 4/32/32 6/33/33
f 8/34/34 12/36/36 6/33/33
f 2/31/31 6/33/33 12/36/36
f 10/35/35 12/36/36 8/34/34
