# Rhino

v -0.099999986588954926 0.0099999997764825821 0.10000000149011612
v -0.099999986588954926 0 0.10000000149011612
v -0.099999986588954926 0.0099999997764825821 -0.10000000149011612
v -0.099999986588954926 0 -0.10000000149011612
v 0.10000000149011612 0.0099999997764825821 -0.10000000149011612
v 0.10000000149011612 0 -0.10000000149011612
v 0.10000000149011612 0.0099999997764825821 0.10000000149011612
v 0.10000000149011612 0 0.10000000149011612
vt 0 0
vt 0 0.52380925416946411
vt 0.25 0
vt 0.25 0.52380925416946411
vt 0.25 0
vt 0.25 0.52380925416946411
vt 0.5 0
vt 0.5 0.52380925416946411
vt 0.5 0
vt 0.5 0.52380925416946411
vt 0.75 0
vt 0.75 0.52380925416946411
vt 0.75 0
vt 0.75 0.52380925416946411
vt 1 0
vt 1 0.52380925416946411
vt 0.25 1
vt 0.25 0.52380979061126709
vt 0 0.52380979061126709
vt 0 1
vt 1 0.52380979061126709
vt 1 1
vt 0.75 1
vt 0.75 0.52380979061126709
vn -1 0 0
vn -1 0 0
vn -1 0 0
vn -1 0 0
vn 0 0 -1
vn 0 0 -1
vn 0 0 -1
vn 0 0 -1
vn 1 0 0
vn 1 0 0
vn 1 0 0
vn 1 0 0
vn 0 0 1
vn 0 0 1
vn 0 0 1
vn 0 0 1
vn 0 1 0
vn 0 1 0
vn 0 1 0
vn 0 1 0
vn 0 -1 0
vn 0 -1 0
vn 0 -1 0
vn 0 -1 0
f 1/1/1 3/3/3 4/4/4 2/2/2
f 3/5/5 5/7/7 6/8/8 4/6/6
f 5/9/9 7/11/11 8/12/12 6/10/10
f 7/13/13 1/15/15 2/16/16 8/14/14
f 1/17/17 7/20/20 5/19/19
f 5/19/19 3/18/18 1/17/17
f 2/21/21 6/23/23 8/24/24
f 6/23/23 2/21/21 4/22/22
