# Rhino

v 0 0 0
v 0 0.019999999552965164 0
v 0.69999998807907104 0 0
v 0.69999998807907104 0.019999999552965164 0
v 0.69999998807907104 0 -0.60000002384185791
v 0.69999998807907104 0.019999999552965164 -0.60000002384185791
v 0 0 -0.60000002384185791
v 0 0.019999999552965164 -0.60000002384185791
vt 0 0
vt 0 0.50617259740829468
vt 0.25 0
vt 0.25 0.50617259740829468
vt 0.25 0
vt 0.25 0.50617259740829468
vt 0.5 0
vt 0.5 0.50617259740829468
vt 0.5 0
vt 0.5 0.50617259740829468
vt 0.75 0
vt 0.75 0.50617259740829468
vt 0.75 0
vt 0.75 0.50617259740829468
vt 1 0
vt 1 0.50617259740829468
vt 0 1
vt 0.27777779102325439 1
vt 0.27777779102325439 0.50617307424545288
vt 0 0.50617307424545288
vt 0.72222220897674561 0.50617307424545288
vt 1 0.50617307424545288
vt 1 1
vt 0.72222220897674561 1
vn 0 0 1
vn 0 0 1
vn 0 0 1
vn 0 0 1
vn 1 0 0
vn 1 0 0
vn 1 0 0
vn 1 0 0
vn 0 0 -1
vn 0 0 -1
vn 0 0 -1
vn 0 0 -1
vn -1 0 0
vn -1 0 0
vn -1 0 0
vn -1 0 0
vn 0 -1 0
vn 0 -1 0
vn 0 -1 0
vn 0 -1 0
vn 0 1 0
vn 0 1 0
vn 0 1 0
vn 0 1 0
f 1/1/1 3/3/3 4/4/4 2/2/2
f 3/5/5 5/7/7 6/8/8 4/6/6
f 5/9/9 7/11/11 8/12/12 6/10/10
f 7/13/13 1/15/15 2/16/16 8/14/14
f 3/18/18 1/17/17 7/20/20
f 7/20/20 5/19/19 3/18/18
f 4/22/22 8/24/24 2/21/21
f 8/24/24 4/22/22 6/23/23
